<svg xmlns="http://www.w3.org/2000/svg" width="96" height="96" baseProfile="tiny-ps" version="1.2"><title>bimi-svg-tiny-12-ps</title><path fill="#57893A" d="M0 0 C0.99 0.495 0.99 0.495 2 1 C-6.86272234 37.92120276 -6.86272234 37.92120276 -22.1875 48.51171875 C-30.90638448 53.79451508 -41.20537349 55.56703063 -51.25390625 53.546875 C-52.85503807 53.09402964 -54.43221251 52.55743555 -56 52 C-56 51.01 -56 50.02 -56 49 C-56.33 49.66 -56.66 50.32 -57 51 C-60.16115776 49.63016497 -60.9927092 49.0109362 -63 46 C-62.67 45.34 -62.34 44.68 -62 44 C-67.96868875 47.82897014 -70.9824657 50.74485654 -72.6875 57.875 C-72.790625 58.57625 -72.89375 59.2775 -73 60 C-74.32 60 -75.64 60 -77 60 C-79.48408248 52.54775256 -77.91251097 45.05134235 -75 38 C-69.59967947 27.9848601 -61.76942996 20.09007447 -51 16 C-50.09459473 16.29922363 -50.09459473 16.29922363 -49.17089844 16.60449219 C-45.99912797 17.18234511 -44.48784616 15.92991651 -41.71484375 14.359375 C-34.58791328 10.6146249 -27.26154254 8.42489213 -19.5625 6.25 C-17.55383305 5.67180971 -15.54615866 5.09034102 -13.53904724 4.5067749 C-11.73805797 3.98476237 -9.93465071 3.47111302 -8.13110352 2.95800781 C-5.01934109 2.06555084 -5.01934109 2.06555084 -2.21069336 0.81542969 C-1.48116455 0.54633789 -0.75163574 0.27724609 0 0 Z M-51 18 C-51.33 18.66 -51.66 19.32 -52 20 C-51.01 19.67 -50.02 19.34 -49 19 C-49.66 18.67 -50.32 18.34 -51 18 Z M-56.625 22.5 C-57.40875 23.325 -58.1925 24.15 -59 25 C-58.67 25.66 -58.34 26.32 -58 27 C-56.02 24.69 -54.04 22.38 -52 20 C-54.36278736 19.77011494 -54.36278736 19.77011494 -56.625 22.5 Z M-60 27 C-59 29 -59 29 -59 29 Z M-54 28 C-53 30 -53 30 -53 30 Z M-39 30 C-39.99 31.485 -39.99 31.485 -41 33 C-39.68 32.34 -38.36 31.68 -37 31 C-37.66 30.67 -38.32 30.34 -39 30 Z M-55 31 C-55.69710731 32.28650706 -56.38242876 33.57940665 -57.0625 34.875 C-57.44535156 35.59429687 -57.82820313 36.31359375 -58.22265625 37.0546875 C-58.47917969 37.69664063 -58.73570313 38.33859375 -59 39 C-58.67 39.66 -58.34 40.32 -58 41 C-57.319375 39.906875 -56.63875 38.81375 -55.9375 37.6875 C-55.55464844 37.07261719 -55.17179687 36.45773438 -54.77734375 35.82421875 C-53.68887926 33.82866925 -53.68887926 33.82866925 -55 31 Z M-43 33 C-45.97 35.97 -48.94 38.94 -52 42 C-51.67 42.66 -51.34 43.32 -51 44 C-47.7 40.7 -44.4 37.4 -41 34 C-41.66 33.67 -42.32 33.34 -43 33 Z M-53 44 C-53.66 45.32 -54.32 46.64 -55 48 C-54.01 47.34 -53.02 46.68 -52 46 C-52.33 45.34 -52.66 44.68 -53 44 Z" transform="translate(83,3)"/><path fill="#0A3E2F" d="M0 0 C6.79171625 0.45426854 12.90232824 1.61282452 19.375 3.6875 C20.66083984 4.08026123 20.66083984 4.08026123 21.97265625 4.48095703 C26.35548707 5.82379881 30.70636764 7.23395086 35.0390625 8.73046875 C43.63465667 11.62718652 51.57206456 13.55170835 60.6875 13.625 C61.48865234 13.6357959 62.28980469 13.6465918 63.11523438 13.65771484 C68.37565713 13.53115656 72.35558485 12.27792198 77.06567383 9.95068359 C79 9 79 9 82 8 C78.72498432 15.65876062 70.9261371 20.63284267 63.578125 23.96875 C50.60716472 29.15713411 36.18698495 30.26643456 23 25 C12.55687329 20.09712361 4.8967275 13.30479108 0.5625 2.375 C0.376875 1.59125 0.19125 0.8075 0 0 Z" transform="translate(6,64)"/><path fill="#89A037" d="M0 0 C-1 3 -1 3 -3.66796875 4.578125 C-4.82941406 5.12984375 -5.99085937 5.6815625 -7.1875 6.25 C-7.81317871 6.55518555 -8.43885742 6.86037109 -9.08349609 7.17480469 C-12.24091889 8.71204381 -15.41678028 10.18703409 -18.62109375 11.625 C-31.07031175 17.39855038 -40.40077212 25.48445825 -47.390625 37.36328125 C-49.0572837 40.09385072 -50.84151923 42.70026306 -52.6875 45.3125 C-53.31011719 46.19550781 -53.93273437 47.07851563 -54.57421875 47.98828125 C-55.04472656 48.65214844 -55.51523437 49.31601562 -56 50 C-59.16115776 48.63016497 -59.9927092 48.0109362 -62 45 C-61.67 44.34 -61.34 43.68 -61 43 C-66.96868875 46.82897014 -69.9824657 49.74485654 -71.6875 56.875 C-71.790625 57.57625 -71.89375 58.2775 -72 59 C-73.32 59 -74.64 59 -76 59 C-78.48408248 51.54775256 -76.91251097 44.05134235 -74 37 C-68.59967947 26.9848601 -60.76942996 19.09007447 -50 15 C-49.39615479 15.19940186 -48.79230957 15.39880371 -48.17016602 15.60424805 C-45.0014728 16.18209164 -43.49671801 14.93338939 -40.7265625 13.36328125 C-33.54076333 9.5869702 -26.13731947 7.3847205 -18.375 5.1875 C-16.33555745 4.59870797 -14.29707661 4.00670752 -12.25894165 3.41340637 C-10.43770534 2.88499552 -8.61417716 2.36450266 -6.79052734 1.84448242 C-0.69557676 0 -0.69557676 0 0 0 Z M-50 17 C-50.33 17.66 -50.66 18.32 -51 19 C-50.01 18.67 -49.02 18.34 -48 18 C-48.66 17.67 -49.32 17.34 -50 17 Z M-55.625 21.5 C-56.40875 22.325 -57.1925 23.15 -58 24 C-57.67 24.66 -57.34 25.32 -57 26 C-55.02 23.69 -53.04 21.38 -51 19 C-53.36278736 18.77011494 -53.36278736 18.77011494 -55.625 21.5 Z M-59 26 C-58 28 -58 28 -58 28 Z M-53 27 C-52 29 -52 29 -52 29 Z M-54 30 C-54.69710731 31.28650706 -55.38242876 32.57940665 -56.0625 33.875 C-56.44535156 34.59429687 -56.82820313 35.31359375 -57.22265625 36.0546875 C-57.47917969 36.69664063 -57.73570313 37.33859375 -58 38 C-57.67 38.66 -57.34 39.32 -57 40 C-56.319375 38.906875 -55.63875 37.81375 -54.9375 36.6875 C-54.55464844 36.07261719 -54.17179687 35.45773438 -53.77734375 34.82421875 C-52.68887926 32.82866925 -52.68887926 32.82866925 -54 30 Z" transform="translate(82,4)"/><path fill="#0666A2" d="M0 0 C0.66 0 1.32 0 2 0 C2.64834654 1.269553 3.29357815 2.54069706 3.9375 3.8125 C4.29714844 4.52019531 4.65679687 5.22789063 5.02734375 5.95703125 C8.54672205 13.34913908 8.26004927 23.74968454 5.953125 31.53125 C2.78813559 38.6059322 2.78813559 38.6059322 0 40 C-2.18576146 40.09663965 -4.37460848 40.12980327 -6.5625 40.125 C-8.32787109 40.12886719 -8.32787109 40.12886719 -10.12890625 40.1328125 C-13 40 -13 40 -14 39 C-14.07350371 36.34504582 -14.09232054 33.7165281 -14.0625 31.0625 C-14.05798828 30.32064453 -14.05347656 29.57878906 -14.04882812 28.81445312 C-14.0365278 26.87627277 -14.01861598 24.93812998 -14 23 C-13.96538955 20.8549976 -13.96538955 20.8549976 -14.296875 18.15625 C-14 15 -14 15 -11.953125 12.65625 C-11.06109375 11.9446875 -10.1690625 11.233125 -9.25 10.5 C-4.8996287 6.8904877 -4.8996287 6.8904877 -1.5 2.4375 C-1.005 1.633125 -0.51 0.82875 0 0 Z" transform="translate(75,37)"/><path fill="#0D3E2D" d="M0 0 C2.62517437 7.8755231 -3.23901437 19.25285759 -6.75 26.4375 C-11.98435524 36.67183637 -19.11219157 43.96319962 -30.18359375 47.74609375 C-37.91563021 49.7445702 -46.21296307 49.68368366 -54 48 C-51.31099748 45.31099748 -48.7647221 44.90292799 -45.125 43.8125 C-26.38090105 37.84724114 -13.19564371 25.59194862 -4.03515625 8.4296875 C-2.63430189 5.64116329 -1.28177825 2.84492245 0 0 Z" transform="translate(82,8)"/><path fill="#06284A" d="M0 0 C3.94888516 1.31629505 6.87428663 3.26733061 10.1796875 5.70703125 C12.45520271 7.32333068 14.81796037 8.68745382 17.26171875 10.03125 C18.9768741 10.98711186 20.64566984 12.02466235 22.3125 13.0625 C30.53017951 17.69018415 38.78511057 18.43969742 48.0625 18.25 C49.10599609 18.24484375 50.14949219 18.2396875 51.22460938 18.234375 C55.95716602 18.62194472 55.95716602 18.62194472 60 17 C61.99958364 16.95919217 64.00045254 16.95745644 66 17 C63.55229545 19.87482078 61.16175663 20.89440249 57.625 22.125 C56.68914062 22.45757812 55.75328125 22.79015625 54.7890625 23.1328125 C42.77278032 26.86896746 28.89712195 26.17705256 17.50390625 20.828125 C10.58236757 17.14573004 4.85004123 12.96602791 1 6 C0.1875 2.5625 0.1875 2.5625 0 0 Z" transform="translate(9,67)"/><path fill="#0E3F2E" d="M0 0 C-0.87011719 0.54914062 -0.87011719 0.54914062 -1.7578125 1.109375 C-8.71987614 5.93456762 -11.78681454 11.26728483 -15 19 C-15.37640625 19.88429688 -15.7528125 20.76859375 -16.140625 21.6796875 C-17.13187061 24.06124007 -17.13187061 24.06124007 -17.3125 27 C-18 30 -18 30 -20.4375 32.375 C-23.81031174 35.83007544 -24.12617897 38.31314177 -25 43 C-26.32 43 -27.64 43 -29 43 C-31.48408248 35.54775256 -29.91251097 28.05134235 -27 21 C-22.6272212 12.89048295 -10.60890712 -3.53630237 0 0 Z" transform="translate(35,20)"/><path fill="#0A8BBE" d="M0 0 C6.76594019 -0.11381955 13.28837062 0.11978631 20 1 C20 6.94 20 12.88 20 19 C6.69614656 16.65950726 6.69614656 16.65950726 3.625 13.75 C1.88038386 10.79757269 1.23863067 8.56719546 0.75 5.1875 C0.60046875 4.21167969 0.4509375 3.23585937 0.296875 2.23046875 C0.19890625 1.49441406 0.1009375 0.75835937 0 0 Z" transform="translate(40,58)"/><path fill="#0D6095" d="M0 0 C0.66 0 1.32 0 2 0 C2.64834654 1.269553 3.29357815 2.54069706 3.9375 3.8125 C4.29714844 4.52019531 4.65679687 5.22789063 5.02734375 5.95703125 C7.03988877 10.18418404 7.10508538 13.5456934 7.0625 18.1875 C7.05347656 19.45980469 7.04445313 20.73210938 7.03515625 22.04296875 C7.02355469 23.01878906 7.01195313 23.99460937 7 25 C6.67 24.01 6.34 23.02 6 22 C-0.6 21.67 -7.2 21.34 -14 21 C-14 15 -14 15 -11.953125 12.65625 C-11.06109375 11.9446875 -10.1690625 11.233125 -9.25 10.5 C-4.8996287 6.8904877 -4.8996287 6.8904877 -1.5 2.4375 C-1.005 1.633125 -0.51 0.82875 0 0 Z" transform="translate(75,37)"/><path fill="#0F89B8" d="M0 0 C5.62828886 1.36443366 8.7125834 5.51937292 12 10 C14.26931296 13.88570078 15.41333852 17.45327631 15 22 C11.91190305 23.76462683 10.76687864 24 7 24 C6.84144531 23.24976562 6.68289062 22.49953125 6.51953125 21.7265625 C5.04488416 15.25766863 3.14970666 9.74861701 -0.109375 3.9609375 C-0.40328125 3.31382813 -0.6971875 2.66671875 -1 2 C-0.67 1.34 -0.34 0.68 0 0 Z" transform="translate(77,32)"/><path fill="#0A2B52" d="M0 0 C0.33 0 0.66 0 1 0 C1.268125 0.94875 1.53625 1.8975 1.8125 2.875 C2.74986588 6.25267273 2.74986588 6.25267273 6 8 C6.33 8.680625 6.66 9.36125 7 10.0625 C7.89698316 12.35342991 7.89698316 12.35342991 11 13 C11.66 11.35 12.32 9.7 13 8 C14.32 8 15.64 8 17 8 C17.33 6.02 17.66 4.04 18 2 C18.99 2 19.98 2 21 2 C20.47799942 7.22000584 18.79095098 11.58713788 16 16 C13.13366205 17.43316898 10.62764499 17.13200361 7.4375 17.125 C5.67212891 17.12886719 5.67212891 17.12886719 3.87109375 17.1328125 C1 17 1 17 0 16 C-0.07319621 13.30345146 -0.09242537 10.63308542 -0.0625 7.9375 C-0.05798828 7.17888672 -0.05347656 6.42027344 -0.04882812 5.63867188 C-0.0370068 3.75908129 -0.01907078 1.87953101 0 0 Z" transform="translate(61,60)"/><path fill="#146B99" d="M0 0 C-0.50596568 6.07158815 -1.84976605 12.12369943 -6.52734375 16.39453125 C-8.68505615 17.88752052 -10.32686568 19 -13 19 C-12.35702496 16.37426939 -11.71075589 13.74942697 -11.0625 11.125 C-10.88009766 10.37863281 -10.69769531 9.63226563 -10.50976562 8.86328125 C-9.11328125 3.2265625 -9.11328125 3.2265625 -8 1 C-5.14829211 0.01665245 -3.10359391 0 0 0 Z" transform="translate(92,56)"/><path fill="#217D9F" d="M0 0 C2.64 0.33 5.28 0.66 8 1 C8.99 5.62 9.98 10.24 11 15 C4.20380435 11.60190217 4.20380435 11.60190217 2.125 8.0625 C1.71507812 7.39347656 1.30515625 6.72445312 0.8828125 6.03515625 C0 4 0 4 0 0 Z" transform="translate(31,57)"/><path fill="#0891C8" d="M0 0 C2.72052435 1.8460701 3.00341244 4.07671852 3.75 7.1875 C3.75 8.1775 3.75 9.1675 3.75 10.1875 C-1.79621849 10.5572479 -1.79621849 10.5572479 -3.9375 8.8125 C-4.370625 8.27625 -4.80375 7.74 -5.25 7.1875 C-6.24 6.5275 -7.23 5.8675 -8.25 5.1875 C-2.94642857 0.24553571 -2.94642857 0.24553571 0 0 Z" transform="translate(77.25,41.8125)"/><path fill="#1784AC" d="M0 0 C5.00918744 1.47329042 7.51807722 4.27515238 11 8 C10.67 8.66 10.34 9.32 10 10 C9.34 9.34 8.68 8.68 8 8 C6.68 9.32 5.36 10.64 4 12 C3.13624104 10.38007835 2.28424146 8.75388139 1.4375 7.125 C0.72400391 5.76761719 0.72400391 5.76761719 -0.00390625 4.3828125 C-0.33261719 3.59648438 -0.66132812 2.81015625 -1 2 C-0.67 1.34 -0.34 0.68 0 0 Z" transform="translate(77,32)"/><path fill="#8F9546" d="M0 0 C0.66 0.33 1.32 0.66 2 1 C1.071875 1.9590625 1.071875 1.9590625 0.125 2.9375 C-2.56594788 6.81563076 -3.23906545 10.40435579 -4 15 C-6 13 -6 13 -6.125 10.375 C-6.08375 9.59125 -6.0425 8.8075 -6 8 C-7.32 8.99 -8.64 9.98 -10 11 C-8.55218207 7.55571735 -6.72305391 5.63869038 -3.875 3.25 C-3.15054687 2.63640625 -2.42609375 2.0228125 -1.6796875 1.390625 C-0.84824219 0.70226562 -0.84824219 0.70226562 0 0 Z M-5 10 C-4 12 -4 12 -4 12 Z" transform="translate(34,21)"/><path fill="#0A8CC0" d="M0 0 C1.98 0 3.96 0 6 0 C5.67 2.64 5.34 5.28 5 8 C4.01 8 3.02 8 2 8 C-0.1519437 4.77208445 -0.20086443 3.71599191 0 0 Z" transform="translate(84,57)"/><path fill="#1A332D" d="M0 0 C0.66 0 1.32 0 2 0 C0.40907948 4.13639336 -2.60474918 7.23213248 -6 10 C-6.66 10 -7.32 10 -8 10 C-8 9.34 -8 8.68 -8 8 C-7.34 8 -6.68 8 -6 8 C-6 7.34 -6 6.68 -6 6 C-7.32 5.67 -8.64 5.34 -10 5 C-9.36191406 4.72285156 -8.72382812 4.44570312 -8.06640625 4.16015625 C-7.24011719 3.79792969 -6.41382812 3.43570313 -5.5625 3.0625 C-4.73878906 2.70285156 -3.91507812 2.34320313 -3.06640625 1.97265625 C-1.05589883 1.16877677 -1.05589883 1.16877677 0 0 Z" transform="translate(86,72)"/><path fill="#0A8FC4" d="M0 0 C1.2065625 0.0309375 1.2065625 0.0309375 2.4375 0.0625 C2.4375 2.0425 2.4375 4.0225 2.4375 6.0625 C0.7875 5.7325 -0.8625 5.4025 -2.5625 5.0625 C-3.125 3.125 -3.125 3.125 -3.5625 1.0625 C-2.5625 0.0625 -2.5625 0.0625 0 0 Z" transform="translate(35.5625,58.9375)"/><path fill="#0F2240" d="M0 0 C0 1.65 0 3.3 0 5 C-2.97 5 -5.94 5 -9 5 C-9 4.34 -9 3.68 -9 3 C-7.68825887 2.4980125 -6.37558403 1.99846423 -5.0625 1.5 C-4.33160156 1.2215625 -3.60070313 0.943125 -2.84765625 0.65625 C-1 0 -1 0 0 0 Z" transform="translate(60,53)"/><path fill="#909C4D" d="M0 0 C-1 3 -1 3 -2.765625 4.1796875 C-5.25718223 5.09442005 -7.10616836 5.20275975 -9.75 5.125 C-10.54921875 5.10695313 -11.3484375 5.08890625 -12.171875 5.0703125 C-12.77515625 5.04710937 -13.3784375 5.02390625 -14 5 C-11.35493484 3.23662322 -9.40786033 2.3439149 -6.4375 1.375 C-5.65246094 1.11460938 -4.86742188 0.85421875 -4.05859375 0.5859375 C-2 0 -2 0 0 0 Z" transform="translate(82,4)"/><path fill="#1E7F9F" d="M0 0 C2.475 0.99 2.475 0.99 5 2 C5 2.99 5 3.98 5 5 C3.68 5.33 2.36 5.66 1 6 C-0.0625 4.125 -0.0625 4.125 -1 2 C-0.67 1.34 -0.34 0.68 0 0 Z" transform="translate(77,32)"/><path fill="#2A3F37" d="M0 0 C-1.26538369 0.84158536 -2.53753779 1.67299748 -3.8125 2.5 C-4.87404297 3.19609375 -4.87404297 3.19609375 -5.95703125 3.90625 C-8 5 -8 5 -11 5 C-11 4.34 -11 3.68 -11 3 C-9.73581754 2.30034557 -8.46334598 1.61565237 -7.1875 0.9375 C-6.47980469 0.55464844 -5.77210937 0.17179687 -5.04296875 -0.22265625 C-3 -1 -3 -1 0 0 Z" transform="translate(35,20)"/><path fill="#112A3A" d="M0 0 C1.98 0 3.96 0 6 0 C3.60490662 2.89932357 1.68754757 3.50168276 -2 4 C-1.34 2.68 -0.68 1.36 0 0 Z" transform="translate(69,84)"/><path fill="#0B284F" d="M0 0 C0.66 0 1.32 0 2 0 C2 2.31 2 4.62 2 7 C1.01 6.67 0.02 6.34 -1 6 C-1.042721 4.33388095 -1.04063832 2.66617115 -1 1 C-0.67 0.67 -0.34 0.34 0 0 Z" transform="translate(58,70)"/><path fill="#8BA234" d="M0 0 C1.24546405 2.49092811 0.7767578 3.41080733 0 6 C-1.65 6.33 -3.3 6.66 -5 7 C-5 6.01 -5 5.02 -5 4 C-2.5 1.8125 -2.5 1.8125 0 0 Z" transform="translate(28,28)"/><path fill="#0F2B51" d="M0 0 C2.88437779 1.29299694 4.87219421 2.65941363 7 5 C6.67 5.66 6.34 6.32 6 7 C1.125 3.375 1.125 3.375 0 0 Z" transform="translate(33,64)"/></svg>